<svg xmlns="http://www.w3.org/2000/svg" width="1440" height="900" viewBox="0 0 1440 900">
  <defs>
    <pattern id="grid" width="24" height="24" patternUnits="userSpaceOnUse"><path d="M24 0H0V24" fill="none" stroke="#40eaaa" stroke-opacity=".05"/></pattern>
    <linearGradient id="pipe" x2="0" y2="1"><stop stop-color="#8affcf"/><stop offset=".25" stop-color="#36d99b"/><stop offset="1" stop-color="#17614b"/></linearGradient>
    <style>text{font-family:ui-monospace,monospace}.muted{fill:#91a8a3}.label{fill:#47f0ae;font-size:12px;letter-spacing:3px}.panel{fill:#081b20;stroke:#2b6558;stroke-width:3}.title{fill:#f1fff9;font-weight:800}</style>
  </defs>
  <rect width="1440" height="900" fill="#07131c"/><rect width="1440" height="900" fill="url(#grid)"/>
  <circle cx="86" cy="105" r="2" fill="#b9ffe5"/><circle cx="1280" cy="82" r="2" fill="#b9ffe5"/><circle cx="1188" cy="288" r="1.5" fill="#b9ffe5"/>
  <g transform="translate(65 42)">
    <rect width="48" height="48" rx="3" fill="#0b2827" stroke="#47f0ae" stroke-width="2"/><path d="M13 25h22M19 19v12M30 20h1M34 25h1" stroke="#47f0ae" stroke-width="3"/>
    <text x="66" y="20" class="title" font-size="20">STACK OVERLORD</text><text x="66" y="42" class="muted" font-size="13">Commit-to-deployment command center</text>
    <rect x="270" y="1" width="174" height="24" rx="3" fill="#0c2924" stroke="#2b6558"/><text x="282" y="17" fill="#47f0ae" font-size="10">PIXEL PIPELINE · V1</text>
    <rect x="1060" y="5" width="210" height="34" rx="17" fill="#0b2024" stroke="#2b6558"/><circle cx="1080" cy="22" r="5" fill="#f5c65c"/><text x="1095" y="26" class="muted" font-size="11">DETERMINISTIC DEMO FEED</text>
    <path d="M0 70H1310" stroke="#163d3a" stroke-width="4"/>
    <text y="114" class="label">PIPELINE TRUTH</text><text y="150" class="title" font-size="28">Deployment overview</text><text y="175" class="muted" font-size="13">Verified workflow states first. AI analysis only where evidence fails.</text>
    <path d="M145 270H1165" stroke="#0b342b" stroke-width="20"/><path d="M145 270H1165" stroke="url(#pipe)" stroke-width="12"/>
    <g transform="translate(0 205)"><rect class="panel" width="295" height="135"/><text x="20" y="34" class="muted" font-size="13">Succeeded</text><text x="20" y="78" class="title" font-size="34">02</text><text x="20" y="112" class="muted" font-size="12">Completed and verified</text><rect x="245" y="20" width="30" height="30" fill="#103c31" stroke="#47f0ae"/><path d="m253 35 6 6 10-13" fill="none" stroke="#47f0ae" stroke-width="3"/></g>
    <g transform="translate(338 205)"><rect class="panel" width="295" height="135" stroke="#9b423c"/><text x="20" y="34" class="muted" font-size="13">Failed</text><text x="20" y="78" class="title" font-size="34">02</text><text x="20" y="112" class="muted" font-size="12">Needs attention</text><rect x="245" y="20" width="30" height="30" fill="#351c1c" stroke="#e46d64"/><path d="m253 28 14 14m0-14-14 14" stroke="#e46d64" stroke-width="3"/></g>
    <g transform="translate(676 205)"><rect class="panel" width="295" height="135" stroke="#a88434"/><text x="20" y="34" class="muted" font-size="13">Running</text><text x="20" y="78" class="title" font-size="34">01</text><text x="20" y="112" class="muted" font-size="12">Awaiting conclusion</text><circle cx="260" cy="35" r="13" fill="none" stroke="#f5c65c" stroke-width="3"/><circle cx="260" cy="35" r="4" fill="#f5c65c"/></g>
    <g transform="translate(1014 205)"><rect class="panel" width="295" height="135" stroke="#596b6b"/><text x="20" y="34" class="muted" font-size="13">Cancelled</text><text x="20" y="78" class="title" font-size="34">00</text><text x="20" y="112" class="muted" font-size="12">Stopped before completion</text><circle cx="260" cy="35" r="13" fill="none" stroke="#91a8a3" stroke-width="3"/><path d="M260 27v9l6 4" fill="none" stroke="#91a8a3" stroke-width="2"/></g>
    <path d="M654 340v60" stroke="#0b342b" stroke-width="20"/><path d="M654 340v60" stroke="url(#pipe)" stroke-width="12"/><rect x="631" y="389" width="46" height="18" fill="#2aa879" stroke="#0b342b" stroke-width="3"/>
    <g transform="translate(0 405)"><rect class="panel" width="1310" height="360"/><text x="24" y="38" class="title" font-size="17">Pipeline ledger</text><text x="24" y="62" class="muted" font-size="12">Select a failed process to inspect its evidence and recovery plan.</text><path d="M0 82H1310" stroke="#254a44"/><text x="24" y="112" class="muted" font-size="11">STATUS</text><text x="190" y="112" class="muted" font-size="11">WORKFLOW</text><text x="580" y="112" class="muted" font-size="11">SOURCE</text><text x="790" y="112" class="muted" font-size="11">COMMIT</text>
      <g transform="translate(0 130)"><rect width="1310" height="70" fill="#0b2227"/><rect x="24" y="20" width="88" height="28" rx="14" fill="#351c1c" stroke="#9b423c"/><text x="43" y="38" fill="#ffaaa3" font-size="11">✕ FAILED</text><text x="190" y="29" class="title" font-size="12">Deploy to Firebase Hosting on Merge</text><text x="190" y="49" class="muted" font-size="10">Cognitive-Bridge-Stack-Overlord-Demo</text><text x="580" y="35" class="muted" font-size="11">⑂ main</text><text x="790" y="29" fill="#f1fff9" font-size="11">8f73b6a</text><text x="790" y="49" class="muted" font-size="10">rotate sandbox credentials</text><rect x="1185" y="20" width="96" height="30" rx="3" fill="#351c1c" stroke="#9b423c"/><text x="1204" y="39" fill="#ffaaa3" font-size="11">DIAGNOSE</text></g>
      <g transform="translate(0 200)"><text x="42" y="42" fill="#80ffc9" font-size="11">✓ SUCCEEDED</text><text x="190" y="35" class="title" font-size="12">Deploy to Firebase Hosting on Merge</text><text x="580" y="35" class="muted" font-size="11">⑂ main</text><text x="790" y="35" fill="#f1fff9" font-size="11">41c8d90</text></g>
      <path d="M0 270H1310" stroke="#193832"/><text x="24" y="320" class="muted" font-size="11">Pipeline state is deterministic. GPT-5.6 explains failures; it does not invent them.</text>
    </g>
  </g>
  <rect x="18" y="850" width="306" height="32" rx="3" fill="#47f0ae"/><text x="34" y="871" fill="#061414" font-family="ui-monospace,monospace" font-size="12" font-weight="700">SCREENSHOT: PIXEL PIPELINE · V1 · DESKTOP</text>
</svg>
