<svg xmlns="http://www.w3.org/2000/svg" viewBox="0 0 16 16" role="img" aria-labelledby="title desc" shape-rendering="crispEdges">
  <title id="title">App icon: pipe-shaped S on sky</title>
  <desc id="desc">A green pipe forms an S over a blue sky and cream cloud backdrop.</desc>
  <rect width="16" height="16" fill="#83cdf1"/>
  <g fill="#fff8dc" opacity=".95"><rect y="12.5" width="16" height="3.5"/><rect x="1" y="11.4" width="3" height="1.2"/><rect x="12" y="11" width="3.4" height="1.5"/><rect x=".5" y="4" width="1.6" height=".8"/><rect x="14" y="4.8" width="1.2" height=".8"/></g>
  <g fill="none" stroke-linejoin="round" stroke-linecap="square"><path d="M11.8 3.1H5.2A2.2 2.2 0 0 0 3 5.3v1a2 2 0 0 0 2 2h6a2 2 0 0 1 2 2v.8a2.2 2.2 0 0 1-2.2 2.2H4" stroke="#2a1208" stroke-width="2.2"/><path d="M11.8 3.1H5.2A2.2 2.2 0 0 0 3 5.3v1a2 2 0 0 0 2 2h6a2 2 0 0 1 2 2v.8a2.2 2.2 0 0 1-2.2 2.2H4" stroke="#47b945" stroke-width="1.45"/><path d="M11.5 3.55H5.3M3.7 5.4v.7m7.1 2.65a1.2 1.2 0 0 1 1.35 1.25m-1.4 2.45H4.3" stroke="#a4f07a" stroke-width=".28"/></g>
  <g fill="#47b945" stroke="#2a1208" stroke-width=".55"><rect x="6.9" y="2.25" width="1.3" height="2.85"/><rect x="2.2" y="6.25" width="2.9" height="1.35"/><rect x="6.9" y="7.45" width="1.3" height="2.9"/><rect x="9.1" y="7.45" width="1.3" height="2.9"/><rect x="11.8" y="10.25" width="2.9" height="1.35"/><rect x="6.9" y="11" width="1.3" height="2.85"/><rect x="9.1" y="11" width="1.3" height="2.85"/></g>
</svg>
