<svg xmlns="http://www.w3.org/2000/svg" viewBox="0 0 16 16" role="img" aria-labelledby="title desc" shape-rendering="crispEdges">
  <title id="title">Favicon: piranha plant blockage</title>
  <desc id="desc">A red piranha plant emerges from a green block marked SO.</desc>
  <rect width="16" height="16" fill="#83cdf1"/><g fill="#fff8dc" opacity=".95"><rect y="12.5" width="16" height="3.5"/><rect x="1" y="11.4" width="3" height="1.2"/><rect x="12" y="11" width="3.4" height="1.5"/><rect x=".5" y="4" width="1.6" height=".8"/><rect x="14" y="4.8" width="1.2" height=".8"/></g>
  <rect x="5" y="9" width="6" height="3.8" fill="#47b945" stroke="#2a1208" stroke-width=".65"/><rect x="5.75" y="10.5" width="4.6" height="2" fill="#fff8dc"/><text x="8" y="12.15" text-anchor="middle" font-family="monospace" font-size="1.85" font-weight="900" fill="#e84c2f">SO</text><rect x="6.6" y="6.9" width="2.8" height="2.4" fill="#2d922f"/><path d="M8 7 C5.4 3.8, 3.7 4.5, 4.7 7 C5.6 8.4, 7 8.5, 8 7Z" fill="#e84c2f" stroke="#2a1208" stroke-width=".45"/><path d="M8 7 C10.6 3.8, 12.3 4.5, 11.3 7 C10.4 8.4, 9 8.5, 8 7Z" fill="#e84c2f" stroke="#2a1208" stroke-width=".45"/><rect x="7.4" y="5.4" width="1.2" height="1.4" fill="white"/><rect x="4.9" y="4.2" width="1.4" height="1.2" fill="white"/><rect x="9.7" y="4.2" width="1.4" height="1.2" fill="white"/>
</svg>
